<svg xmlns="http://www.w3.org/2000/svg" viewBox="0 0 108 108">
  <path d="M44.339844 26.632812c-1.783703 0-3.21875 1.435049-3.21875 3.21875v35.417969c0 1.783704 1.435047 3.21875 3.21875 3.21875h1.611328v11.269531c0 .891852.717525 1.609375 1.609375 1.609375h12.878906c.89185 0 1.609375-.717523 1.609375-1.609375V68.488281h1.609375c1.783705 0 3.220704-1.435046 3.220703-3.21875V29.851562c0-1.783701-1.436998-3.21875-3.220703-3.21875zm9.625 16a7 7 0 0 1 .09375 0 7 7 0 0 1 7 7 7 7 0 0 1-7 7 7 7 0 0 1-7-7 7 7 0 0 1 6.90625-7zM48.097656 69.5625h2.146485v10.732421h-2.146485zm3.21875 0h2.146485v9.121093h-2.146485zm3.220704 0h2.146484v9.121093H54.53711Zm3.21875 0h2.146484v10.732421H57.75586Z"/>
</svg>
